<mxfile host="Electron" modified="2023-11-17T19:12:53.479Z" agent="Mozilla/5.0 (Windows NT 10.0; Win64; x64) AppleWebKit/537.36 (KHTML, like Gecko) draw.io/22.1.2 Chrome/114.0.5735.289 Electron/25.9.4 Safari/537.36" etag="aFjeh5AE6rjT97nu_M8C" version="22.1.2" type="device">
  <diagram name="Página-1" id="5j-ww4zHZG7wsbymvLwp">
    <mxGraphModel dx="880" dy="532" grid="1" gridSize="10" guides="1" tooltips="1" connect="1" arrows="1" fold="1" page="1" pageScale="1" pageWidth="827" pageHeight="1169" math="0" shadow="0">
      <root>
        <mxCell id="0" />
        <mxCell id="1" parent="0" />
        <mxCell id="kYT57yn9HTB8OajrBAQV-72" value="" style="rounded=0;whiteSpace=wrap;html=1;strokeColor=default;fontFamily=Helvetica;fontSize=12;fontColor=default;fillColor=default;sketch=1;curveFitting=1;jiggle=2;" parent="1" vertex="1">
          <mxGeometry x="50" y="120" width="750" height="600" as="geometry" />
        </mxCell>
        <mxCell id="kYT57yn9HTB8OajrBAQV-35" value="" style="group;sketch=1;curveFitting=1;jiggle=2;" parent="1" vertex="1" connectable="0">
          <mxGeometry x="90" y="250" width="690" height="640" as="geometry" />
        </mxCell>
        <mxCell id="kYT57yn9HTB8OajrBAQV-29" value="" style="rounded=0;whiteSpace=wrap;html=1;strokeColor=default;fontFamily=Helvetica;fontSize=12;fontColor=default;fillColor=default;sketch=1;curveFitting=1;jiggle=2;" parent="kYT57yn9HTB8OajrBAQV-35" vertex="1">
          <mxGeometry width="690" height="280" as="geometry" />
        </mxCell>
        <mxCell id="kYT57yn9HTB8OajrBAQV-33" value="&lt;h1 style=&quot;&quot;&gt;2x PRODUTO A&lt;/h1&gt;" style="text;html=1;strokeColor=default;fillColor=none;spacing=5;spacingTop=-20;whiteSpace=wrap;overflow=hidden;rounded=0;fontSize=12;fontFamily=Helvetica;fontColor=default;sketch=1;curveFitting=1;jiggle=2;align=left;" parent="kYT57yn9HTB8OajrBAQV-35" vertex="1">
          <mxGeometry x="10" y="44.13793103448276" width="540" height="88.27586206896552" as="geometry" />
        </mxCell>
        <mxCell id="kYT57yn9HTB8OajrBAQV-34" value="&lt;font style=&quot;font-size: 24px;&quot;&gt;&lt;b&gt;R$ 00,00&lt;/b&gt;&lt;/font&gt;" style="text;html=1;strokeColor=#C73500;fillColor=#fa6800;align=center;verticalAlign=middle;whiteSpace=wrap;rounded=0;fontSize=12;fontFamily=Helvetica;sketch=1;curveFitting=1;jiggle=2;fontColor=#000000;" parent="kYT57yn9HTB8OajrBAQV-35" vertex="1">
          <mxGeometry x="560" y="44.13793103448276" width="120" height="88.27586206896552" as="geometry" />
        </mxCell>
        <mxCell id="DMCw3YvIsU9vqn6lpyYf-1" value="&lt;h1 style=&quot;&quot;&gt;2x PRODUTO B&lt;/h1&gt;" style="text;html=1;strokeColor=default;fillColor=none;spacing=5;spacingTop=-20;whiteSpace=wrap;overflow=hidden;rounded=0;fontSize=12;fontFamily=Helvetica;fontColor=default;sketch=1;curveFitting=1;jiggle=2;align=left;" parent="kYT57yn9HTB8OajrBAQV-35" vertex="1">
          <mxGeometry x="10" y="154.48275862068965" width="540" height="88.27586206896552" as="geometry" />
        </mxCell>
        <mxCell id="DMCw3YvIsU9vqn6lpyYf-2" value="&lt;font style=&quot;font-size: 24px;&quot;&gt;&lt;b&gt;R$ 00,00&lt;/b&gt;&lt;/font&gt;" style="text;html=1;strokeColor=#C73500;fillColor=#fa6800;align=center;verticalAlign=middle;whiteSpace=wrap;rounded=0;fontSize=12;fontFamily=Helvetica;sketch=1;curveFitting=1;jiggle=2;fontColor=#000000;" parent="kYT57yn9HTB8OajrBAQV-35" vertex="1">
          <mxGeometry x="560" y="154.48275862068965" width="120" height="88.27586206896552" as="geometry" />
        </mxCell>
        <mxCell id="DMCw3YvIsU9vqn6lpyYf-14" value="&lt;font style=&quot;font-size: 24px;&quot;&gt;&lt;b&gt;TOTAL R$&lt;/b&gt;&lt;/font&gt;" style="text;html=1;strokeColor=none;fillColor=none;align=left;verticalAlign=middle;whiteSpace=wrap;rounded=0;sketch=1;curveFitting=1;jiggle=2;" parent="kYT57yn9HTB8OajrBAQV-35" vertex="1">
          <mxGeometry y="320" width="690" height="30" as="geometry" />
        </mxCell>
        <mxCell id="DMCw3YvIsU9vqn6lpyYf-15" value="" style="endArrow=none;html=1;rounded=0;exitX=0.01;exitY=0.933;exitDx=0;exitDy=0;exitPerimeter=0;entryX=1;entryY=1;entryDx=0;entryDy=0;sketch=1;curveFitting=1;jiggle=2;" parent="kYT57yn9HTB8OajrBAQV-35" edge="1">
          <mxGeometry width="50" height="50" relative="1" as="geometry">
            <mxPoint x="6.899999999999977" y="352.99" as="sourcePoint" />
            <mxPoint x="689.9999999999991" y="355" as="targetPoint" />
          </mxGeometry>
        </mxCell>
        <mxCell id="kYT57yn9HTB8OajrBAQV-84" value="&lt;font color=&quot;#000000&quot;&gt;&lt;span style=&quot;font-size: 24px;&quot;&gt;&lt;b&gt;&amp;nbsp;&amp;lt; VOLTAR&lt;/b&gt;&lt;/span&gt;&lt;/font&gt;" style="rounded=1;html=1;shadow=0;dashed=0;whiteSpace=wrap;fontSize=10;fillColor=#f8cecc;align=center;strokeColor=#b85450;fontFamily=Helvetica;sketch=1;curveFitting=1;jiggle=2;" parent="kYT57yn9HTB8OajrBAQV-35" vertex="1">
          <mxGeometry x="4" y="385" width="330" height="50" as="geometry" />
        </mxCell>
        <mxCell id="kYT57yn9HTB8OajrBAQV-83" value="&lt;font color=&quot;#000000&quot;&gt;&lt;span style=&quot;font-size: 24px;&quot;&gt;&lt;b&gt;PAGAR &amp;gt;&lt;/b&gt;&lt;/span&gt;&lt;/font&gt;" style="rounded=1;html=1;shadow=0;dashed=0;whiteSpace=wrap;fontSize=10;fillColor=#d5e8d4;align=center;strokeColor=#82b366;fontFamily=Helvetica;sketch=1;curveFitting=1;jiggle=2;" parent="kYT57yn9HTB8OajrBAQV-35" vertex="1">
          <mxGeometry x="360" y="385" width="330" height="50" as="geometry" />
        </mxCell>
        <mxCell id="kYT57yn9HTB8OajrBAQV-88" value="&lt;font size=&quot;1&quot; style=&quot;&quot;&gt;&lt;b style=&quot;font-size: 24px;&quot;&gt;05/09/2023&lt;/b&gt;&lt;/font&gt;" style="text;html=1;align=center;verticalAlign=middle;resizable=0;points=[];autosize=1;strokeColor=#6c8ebf;fillColor=#dae8fc;fontSize=12;fontFamily=Helvetica;sketch=1;curveFitting=1;jiggle=2;" parent="kYT57yn9HTB8OajrBAQV-35" vertex="1">
          <mxGeometry x="-40" y="510" width="140" height="40" as="geometry" />
        </mxCell>
        <mxCell id="kYT57yn9HTB8OajrBAQV-80" value="&lt;span style=&quot;font-size: 24px;&quot;&gt;&lt;b&gt;MEU CARRINHO&lt;/b&gt;&lt;/span&gt;" style="rounded=0;whiteSpace=wrap;html=1;strokeColor=default;fontFamily=Helvetica;fontSize=12;fontColor=default;fillColor=default;sketch=1;curveFitting=1;jiggle=2;" parent="1" vertex="1">
          <mxGeometry x="80" y="152.25" width="690" height="70.5" as="geometry" />
        </mxCell>
        <mxCell id="kYT57yn9HTB8OajrBAQV-87" value="&lt;font style=&quot;font-size: 24px;&quot;&gt;&lt;b&gt;Confirmação de pagamento&lt;/b&gt;&lt;/font&gt;" style="text;html=1;align=center;verticalAlign=middle;resizable=0;points=[];autosize=1;strokeColor=#6c8ebf;fillColor=#dae8fc;fontSize=12;fontFamily=Helvetica;sketch=1;curveFitting=1;jiggle=2;" parent="1" vertex="1">
          <mxGeometry x="255" y="41" width="340" height="40" as="geometry" />
        </mxCell>
      </root>
    </mxGraphModel>
  </diagram>
</mxfile>
